<svg width="18" height="18" viewBox="0 0 219 219" fill="none" xmlns="http://www.w3.org/2000/svg">
<rect width="219" height="219" rx="109.5" fill="#604EFF"/>
<path fill-rule="evenodd" clip-rule="evenodd" d="M133.286 60.1795V72.492L147.473 65.3223C151.233 63.4217 155.705 63.6247 159.281 65.8582C162.837 68.0798 165 71.9938 165 76.2071V126.765C165 130.979 162.837 134.893 159.281 137.114C155.705 139.348 151.233 139.551 147.473 137.65L125.555 126.573C123.108 125.337 121.051 123.438 119.616 121.091C118.186 118.752 117.429 116.06 117.429 113.313V107.321C117.429 105.999 118.169 104.789 119.343 104.196L131.573 98.0121C132.359 97.6145 133.286 98.1901 133.286 99.076V110.534C133.286 111.776 133.982 112.913 135.086 113.471L147.961 119.977C148.503 120.252 149.143 119.854 149.143 119.243V83.7294C149.143 83.1181 148.503 82.7209 147.96 82.9952L105.173 104.619C105.168 104.621 105.163 104.624 105.158 104.627L104.226 105.098C102.598 105.92 101.571 107.596 101.571 109.429V158.82C101.571 163.034 99.4083 166.948 95.852 169.169C92.2764 171.403 87.8049 171.606 84.0442 169.705L62.1261 158.628C59.679 157.392 57.6225 155.493 56.1872 153.146C54.7572 150.807 54 148.115 54 145.369V89.659C54 86.9127 54.7572 84.2203 56.1872 81.8816C57.6225 79.5342 59.679 77.6358 62.1261 76.3991L115.758 49.2947C119.519 47.3941 123.991 47.5971 127.566 49.8306C131.123 52.0522 133.286 55.9662 133.286 60.1795ZM69.8571 93.4526C69.8571 91.5883 70.9019 89.8834 72.5571 89.047L116.246 66.9676C116.789 66.6933 117.429 67.0905 117.429 67.7019V80.5058L93.8404 92.4267C91.3933 93.6634 89.3368 95.5618 87.9015 97.9091C86.4715 100.248 85.7143 102.94 85.7143 105.687V151.587C85.7143 152.066 85.2133 152.377 84.7882 152.162L71.6571 145.526C70.5537 144.968 69.8571 143.832 69.8571 142.589V93.4526Z" fill="white"/>
</svg>
